<svg width="16" height="16" viewBox="0 0 16 16" fill="none" xmlns="http://www.w3.org/2000/svg">
<path d="M8 4.14331C4.227 4.14331 1.25 8.00031 1.25 8.00031C1.25 8.00031 4.227 11.8578 8 11.8578C10.885 11.8578 14.75 8.00031 14.75 8.00031C14.75 8.00031 10.885 4.14331 8 4.14331ZM8 10.4033C6.675 10.4033 5.5965 9.32531 5.5965 8.00031C5.5965 6.67531 6.675 5.59681 8 5.59681C9.325 5.59681 10.4035 6.67531 10.4035 8.00031C10.4035 9.32531 9.325 10.4038 8 10.4038V10.4033ZM8 6.59731C7.81356 6.59379 7.62829 6.62747 7.45502 6.69639C7.28174 6.7653 7.12395 6.86806 6.99085 6.99867C6.85776 7.12928 6.75203 7.2851 6.67986 7.45704C6.60769 7.62898 6.57052 7.81359 6.57052 8.00006C6.57052 8.18653 6.60769 8.37114 6.67986 8.54308C6.75203 8.71502 6.85776 8.87085 6.99085 9.00145C7.12395 9.13206 7.28174 9.23482 7.45502 9.30374C7.62829 9.37265 7.81356 9.40633 8 9.40281C8.36745 9.39587 8.7175 9.24503 8.97491 8.98272C9.23231 8.72041 9.37652 8.36757 9.37652 8.00006C9.37652 7.63255 9.23231 7.27971 8.97491 7.0174C8.7175 6.75509 8.36745 6.60425 8 6.59731Z" fill="#424242"/>
</svg>
